<svg viewBox="0 0 100 100" xmlns="http://www.w3.org/2000/svg">
  <!-- bg-[#FA3E3E] rounded-xl -->
  <rect width="100" height="100" rx="24" fill="#FA3E3E" />
  
  <!-- inner svg centered -->
  <g fill="none" stroke="#FFFFFF" stroke-width="8" stroke-linecap="round" stroke-linejoin="round" transform="translate(18, 18) scale(0.64)">
    <line x1="16" y1="75" x2="84" y2="75"></line>
    <path d="M 24 75 L 24 55 A 8 8 0 0 1 32 47 L 42 47 L 42 75"></path>
    <path d="M 42 75 L 42 34 A 8 8 0 0 1 50 26 A 8 8 0 0 1 58 34 L 58 75"></path>
    <path d="M 58 75 L 58 47 L 68 47 A 8 8 0 0 1 76 55 L 76 75"></path>
  </g>
</svg>
